<svg width="44" height="13" viewBox="0 0 44 13" fill="none" xmlns="http://www.w3.org/2000/svg">
<path d="M4.34 10.12C3.772 10.12 3.244 10.06 2.756 9.94C2.276 9.82 1.836 9.64 1.436 9.4C1.036 9.16 0.672 8.856 0.344 8.488L1.184 7.42C1.672 7.964 2.168 8.356 2.672 8.596C3.176 8.836 3.744 8.956 4.376 8.956C4.768 8.956 5.144 8.908 5.504 8.812C5.864 8.708 6.156 8.56 6.38 8.368C6.604 8.168 6.716 7.92 6.716 7.624C6.716 7.44 6.656 7.284 6.536 7.156C6.424 7.028 6.268 6.924 6.068 6.844C5.876 6.756 5.66 6.684 5.42 6.628C5.188 6.572 4.956 6.528 4.724 6.496C4.492 6.456 4.284 6.428 4.1 6.412C3.588 6.332 3.124 6.228 2.708 6.1C2.3 5.972 1.948 5.812 1.652 5.62C1.364 5.42 1.144 5.18 0.992 4.9C0.84 4.62 0.764 4.3 0.764 3.94C0.764 3.556 0.852 3.212 1.028 2.908C1.212 2.604 1.464 2.348 1.784 2.14C2.112 1.924 2.492 1.76 2.924 1.648C3.356 1.536 3.824 1.48 4.328 1.48C4.864 1.48 5.352 1.536 5.792 1.648C6.24 1.76 6.636 1.928 6.98 2.152C7.332 2.368 7.62 2.636 7.844 2.956L6.98 3.892C6.764 3.62 6.516 3.392 6.236 3.208C5.964 3.024 5.664 2.884 5.336 2.788C5.008 2.692 4.66 2.644 4.292 2.644C3.884 2.644 3.52 2.692 3.2 2.788C2.88 2.884 2.624 3.02 2.432 3.196C2.248 3.364 2.156 3.572 2.156 3.82C2.156 4.02 2.212 4.196 2.324 4.348C2.436 4.5 2.596 4.628 2.804 4.732C3.012 4.828 3.264 4.912 3.56 4.984C3.856 5.048 4.188 5.108 4.556 5.164C5.028 5.228 5.476 5.312 5.9 5.416C6.332 5.512 6.712 5.644 7.04 5.812C7.376 5.972 7.636 6.184 7.82 6.448C8.012 6.704 8.108 7.032 8.108 7.432C8.108 7.968 7.952 8.44 7.64 8.848C7.328 9.256 6.892 9.572 6.332 9.796C5.772 10.012 5.108 10.12 4.34 10.12ZM9.60856 8.32L9.70456 6.976L13.8566 3.7H15.5726L9.60856 8.32ZM8.63656 10V1.12H9.77656V10H8.63656ZM14.0366 10L10.9406 6.652L11.7686 5.848L15.6206 10H14.0366ZM17.0128 12.76L18.6208 9.832L18.6328 10.78L14.7928 3.7H16.2448L18.1288 7.384C18.3688 7.832 18.5728 8.24 18.7408 8.608C18.9168 8.968 19.0328 9.288 19.0888 9.568L18.9088 9.58C19.0128 9.308 19.1448 8.984 19.3048 8.608C19.4648 8.232 19.6608 7.816 19.8928 7.36L21.6568 3.7H23.1088L19.7488 10.06L18.3328 12.76H17.0128ZM23.254 10V1.12H24.49V10H23.254Z" fill="white"/>
<path d="M25.879 10V3.7H27.115V10H25.879ZM26.479 2.212C26.215 2.212 26.011 2.144 25.867 2.008C25.723 1.872 25.651 1.68 25.651 1.432C25.651 1.2 25.723 1.012 25.867 0.868C26.019 0.724 26.223 0.651999 26.479 0.651999C26.743 0.651999 26.947 0.72 27.091 0.856C27.235 0.991999 27.307 1.184 27.307 1.432C27.307 1.664 27.231 1.852 27.079 1.996C26.935 2.14 26.735 2.212 26.479 2.212ZM28.5589 10V3.7H29.7949V5.38L29.3869 5.428C29.5549 5.132 29.7789 4.844 30.0589 4.564C30.3389 4.276 30.6709 4.04 31.0549 3.856C31.4469 3.664 31.8749 3.568 32.3389 3.568C32.9709 3.568 33.4949 3.684 33.9109 3.916C34.3349 4.148 34.6509 4.468 34.8589 4.876C35.0669 5.284 35.1709 5.744 35.1709 6.256V10H33.9349V6.436C33.9349 6.084 33.8509 5.78 33.6829 5.524C33.5149 5.26 33.2869 5.06 32.9989 4.924C32.7109 4.78 32.3869 4.712 32.0269 4.72C31.7069 4.72 31.4109 4.776 31.1389 4.888C30.8669 5 30.6309 5.148 30.4309 5.332C30.2309 5.516 30.0749 5.716 29.9629 5.932C29.8509 6.148 29.7949 6.36 29.7949 6.568V10H29.1829C28.9989 10 28.8549 10 28.7509 10C28.6469 10 28.5829 10 28.5589 10ZM37.5789 8.32L37.6749 6.976L41.8269 3.7H43.5429L37.5789 8.32ZM36.6069 10V1.12H37.7469V10H36.6069ZM42.0069 10L38.9109 6.652L39.7389 5.848L43.5909 10H42.0069Z" fill="#8867FF"/>
</svg>
