<svg width="16" height="10" viewBox="0 0 16 10" fill="none" xmlns="http://www.w3.org/2000/svg">
<path d="M4.34 9.12C3.772 9.12 3.244 9.06 2.756 8.94C2.276 8.82 1.836 8.64 1.436 8.4C1.036 8.16 0.672 7.856 0.344 7.488L1.184 6.42C1.672 6.964 2.168 7.356 2.672 7.596C3.176 7.836 3.744 7.956 4.376 7.956C4.768 7.956 5.144 7.908 5.504 7.812C5.864 7.708 6.156 7.56 6.38 7.368C6.604 7.168 6.716 6.92 6.716 6.624C6.716 6.44 6.656 6.284 6.536 6.156C6.424 6.028 6.268 5.924 6.068 5.844C5.876 5.756 5.66 5.684 5.42 5.628C5.188 5.572 4.956 5.528 4.724 5.496C4.492 5.456 4.284 5.428 4.1 5.412C3.588 5.332 3.124 5.228 2.708 5.1C2.3 4.972 1.948 4.812 1.652 4.62C1.364 4.42 1.144 4.18 0.992 3.9C0.84 3.62 0.764 3.3 0.764 2.94C0.764 2.556 0.852 2.212 1.028 1.908C1.212 1.604 1.464 1.348 1.784 1.14C2.112 0.924 2.492 0.76 2.924 0.648C3.356 0.536 3.824 0.48 4.328 0.48C4.864 0.48 5.352 0.536 5.792 0.648C6.24 0.76 6.636 0.927999 6.98 1.152C7.332 1.368 7.62 1.636 7.844 1.956L6.98 2.892C6.764 2.62 6.516 2.392 6.236 2.208C5.964 2.024 5.664 1.884 5.336 1.788C5.008 1.692 4.66 1.644 4.292 1.644C3.884 1.644 3.52 1.692 3.2 1.788C2.88 1.884 2.624 2.02 2.432 2.196C2.248 2.364 2.156 2.572 2.156 2.82C2.156 3.02 2.212 3.196 2.324 3.348C2.436 3.5 2.596 3.628 2.804 3.732C3.012 3.828 3.264 3.912 3.56 3.984C3.856 4.048 4.188 4.108 4.556 4.164C5.028 4.228 5.476 4.312 5.9 4.416C6.332 4.512 6.712 4.644 7.04 4.812C7.376 4.972 7.636 5.184 7.82 5.448C8.012 5.704 8.108 6.032 8.108 6.432C8.108 6.968 7.952 7.44 7.64 7.848C7.328 8.256 6.892 8.572 6.332 8.796C5.772 9.012 5.108 9.12 4.34 9.12Z" fill="white"/>
<path d="M9.60856 7.32L9.70456 5.976L13.8566 2.7H15.5726L9.60856 7.32ZM8.63656 9V0.12H9.77656V9H8.63656ZM14.0366 9L10.9406 5.652L11.7686 4.848L15.6206 9H14.0366Z" fill="#8867FF"/>
</svg>
