<svg width="27" height="27" viewBox="0 0 27 27" fill="none" xmlns="http://www.w3.org/2000/svg">
<circle cx="13.5" cy="13.5" r="13.5" fill="black"/>
<path d="M10.34 18.12C9.772 18.12 9.244 18.06 8.756 17.94C8.276 17.82 7.836 17.64 7.436 17.4C7.036 17.16 6.672 16.856 6.344 16.488L7.184 15.42C7.672 15.964 8.168 16.356 8.672 16.596C9.176 16.836 9.744 16.956 10.376 16.956C10.768 16.956 11.144 16.908 11.504 16.812C11.864 16.708 12.156 16.56 12.38 16.368C12.604 16.168 12.716 15.92 12.716 15.624C12.716 15.44 12.656 15.284 12.536 15.156C12.424 15.028 12.268 14.924 12.068 14.844C11.876 14.756 11.66 14.684 11.42 14.628C11.188 14.572 10.956 14.528 10.724 14.496C10.492 14.456 10.284 14.428 10.1 14.412C9.588 14.332 9.124 14.228 8.708 14.1C8.3 13.972 7.948 13.812 7.652 13.62C7.364 13.42 7.144 13.18 6.992 12.9C6.84 12.62 6.764 12.3 6.764 11.94C6.764 11.556 6.852 11.212 7.028 10.908C7.212 10.604 7.464 10.348 7.784 10.14C8.112 9.924 8.492 9.76 8.924 9.648C9.356 9.536 9.824 9.48 10.328 9.48C10.864 9.48 11.352 9.536 11.792 9.648C12.24 9.76 12.636 9.928 12.98 10.152C13.332 10.368 13.62 10.636 13.844 10.956L12.98 11.892C12.764 11.62 12.516 11.392 12.236 11.208C11.964 11.024 11.664 10.884 11.336 10.788C11.008 10.692 10.66 10.644 10.292 10.644C9.884 10.644 9.52 10.692 9.2 10.788C8.88 10.884 8.624 11.02 8.432 11.196C8.248 11.364 8.156 11.572 8.156 11.82C8.156 12.02 8.212 12.196 8.324 12.348C8.436 12.5 8.596 12.628 8.804 12.732C9.012 12.828 9.264 12.912 9.56 12.984C9.856 13.048 10.188 13.108 10.556 13.164C11.028 13.228 11.476 13.312 11.9 13.416C12.332 13.512 12.712 13.644 13.04 13.812C13.376 13.972 13.636 14.184 13.82 14.448C14.012 14.704 14.108 15.032 14.108 15.432C14.108 15.968 13.952 16.44 13.64 16.848C13.328 17.256 12.892 17.572 12.332 17.796C11.772 18.012 11.108 18.12 10.34 18.12Z" fill="white"/>
<path d="M15.6086 16.32L15.7046 14.976L19.8566 11.7H21.5726L15.6086 16.32ZM14.6366 18V9.12H15.7766V18H14.6366ZM20.0366 18L16.9406 14.652L17.7686 13.848L21.6206 18H20.0366Z" fill="#8867FF"/>
</svg>
